<svg xmlns="http://www.w3.org/2000/svg" viewBox="0 0 24 24" fill="none">
  <path d="M4 16V12C4 7.58172 7.58172 4 12 4C16.4183 4 20 7.58172 20 12V16" stroke="currentColor" stroke-width="1.5" fill="none"/>
  <path d="M4 17C4 15.3431 5.34315 14 7 14H8C8.55228 14 9 14.4477 9 15V19C9 19.5523 8.55228 20 8 20H7C5.34315 20 4 18.6569 4 17Z" stroke="currentColor" stroke-width="1.5" fill="none"/>
  <path d="M20 17C20 15.3431 18.6569 14 17 14H16C15.4477 14 15 14.4477 15 15V19C15 19.5523 15.4477 20 16 20H17C18.6569 20 20 18.6569 20 17Z" stroke="currentColor" stroke-width="1.5" fill="none"/>
</svg>
